<?xml version="1.0" encoding="utf-8"?>
<!-- Generator: Adobe Illustrator 19.2.1, SVG Export Plug-In . SVG Version: 6.00 Build 0)  -->
<svg version="1.1" id="Layer_1" xmlns="http://www.w3.org/2000/svg" xmlns:xlink="http://www.w3.org/1999/xlink" x="0px" y="0px"
	 viewBox="0 0 340.6 106.9" style="enable-background:new 0 0 340.6 106.9;" xml:space="preserve">
<style type="text/css">
	.st0{fill:#F40000;}
</style>
<g>
	<g>
		<path class="st0" d="M147.6,106.9c-8.1-5.8-18-8.3-27.1-7.9s-13.2,7.2-13.2,7.2C103.2,99,95,94.6,82.5,94.8
			c-20.3,0.2-40.5,9.6-56.4,9.6c-15.3,0-26.4-9.6-26.1-26.7c0.7-30,26.1-57,44.9-69.2c10.8-7,19.9-9.1,25.9-8.4
			c4.4,0.5,9.6,5.5,6.3,12.9c-4.8,10.8-11.6,9.9-11.3,4.7c0.1-3.3,2.4-5.4,4-6.6c1.1-0.7,2.9-0.9,3.9-0.9c0.9-0.8,1.7-6.7-6.1-4.8
			c-7.8,2-17.1,9.6-26.1,19.5S18.6,53.4,15.2,73c-1.7,9.1-0.5,25.7,21,25.5c18.3-0.1,45.2-12.1,69.9-12c9.6,0.1,17.9,2.7,24.5,6.7
			C137.3,97.2,144.9,102.9,147.6,106.9z M153.5,52.5h3.8c0,0-18.8,27.1-29.4,25.9c-5.9-0.7-4.1-8-4.1-8s-8.4,9.8-15.9,7.8
			c-7-1.8-2.5-13.3-2.5-13.3c-0.8,0.4-15.8,17.2-26.3,13.2c-11-4.2-5.3-18.4-3.2-22.6c1.8-3.5,3.8-7.1,3.8-7.1S78,48.9,77,49.1
			c-1.1,0.2-2.6,0.6-2.6,0.6s-5.2,8.5-8.4,12.7c-3.2,4.2-16.7,18.8-24.6,15.9c-8-2.9-6-14-1.5-22.9C47.2,41,64.4,23.3,74.8,26
			c10.5,2.7,1.8,19.7,1.8,19.7s2.1,0.2,7.1-3.2c7.2-5,16.7-18.2,27-16.6c4.8,0.7,9.3,5.7,3.2,15.1c-2,3.1-5.3,5.8-7.8,3.1
			c-1.5-1.7-0.2-4.7,1.4-6.7c2.4-2.9,5.5-2.6,5.5-2.6s1.7-3.9-2.6-3.8c-3.5,0.1-12.4,8.3-17.3,16.5C88.5,55,81.5,68,88.5,70.7
			c6.4,2.6,18.5-11.9,24.2-19.5c5.7-7.5,18.5-24.8,29.2-25.5c3.7-0.2,5.9,3.2,5.9,3.2l1.3-2h10.7c0,0-20.3,33.8-21.8,36.4
			c-1.3,2-2.9,6.5,1.7,4C144,64.9,153.5,52.5,153.5,52.5z M70,49.1c-0.2-0.1-2.9-0.8-5.5-2.6c-2.6-1.7-3.9-4.2-4-4.4
			c-0.1-0.1-0.2,0-0.4,0.1c-0.1,0.1-0.7,0.8-4.5,6.5c-3.9,5.7-9.6,17.2-4.2,19.1c3.4,1.3,9.2-4.7,12.3-8.7c2.8-3.7,6.3-9.3,6.5-9.7
			C70.3,49.2,70.2,49.2,70,49.1z M74.3,31.2c-2.8-2.1-10,2.8-10,8s6.5,6.7,7.3,6.7c0,0,0.7,0.2,1.1-0.5c0.2-0.4,1.1-2,2.1-4.6
			C75.6,38.2,76.9,33,74.3,31.2z M129.1,59.3c4.4-6,16.3-26.9,16.3-26.9s-0.2-1.4-1.7-1.5c-1.7-0.1-4.4,0.5-9.9,7.3
			s-9.8,12.4-12.9,18c-3.4,6.3-4.8,10.6-2.9,11.8c0.6,0.4,1.4,0.4,2,0.2c1.3-0.4,2.9-1.7,5.2-4.2C126.5,62.9,127.7,61.2,129.1,59.3z
			 M177.5,26.9h-10.3l-5.8,9.3h10.3L177.5,26.9z M328.4,10.2c-7.5,4.8-18,9.3-28.1,8.3c-2.6,2.6-5.3,5.7-8,9
			c17.5,3.4,32.7-7.3,40.8-16.6c5.1-5.8,7.5-10.8,7.5-10.8S335.9,5.3,328.4,10.2z M298.5,89.4c-1.4,2.4-3.1,6.7,1.7,4
			c5.8-3.4,14.2-15.9,14.2-15.9h3.8c0,0-5,7.8-11.4,15c-5.9,6.5-13.1,12.5-18.2,11.9c-5.9-0.7-4.1-8.5-4.1-8.5s-8.5,9-14.4,8.4
			c-7.9-0.8-5.5-10.6-5.5-10.6s-9,11-15,10.6c-9.6-0.6-7.2-12.3-4.5-20.4c1.4-4.4,2.7-7.8,2.7-7.8s-0.9,0.2-2.9,0.6
			c-1.1,0.1-2.9,0.2-2.9,0.2s-4,7.1-7.2,11.2c-3.2,4.2-16.7,18.8-24.6,15.9c-7.3-2.7-5-13.9-0.6-22.9c6.3-13.1,23.8-31.8,34-29.4
			c10.5,2.6,0.2,21.7,0.2,21.7s0,0.1,0.1,0.1c0.2,0.1,0.7,0.1,2-0.1c2-0.4,3.9-1.2,3.9-1.2s10.6-22.2,22.3-36.7s35-39.5,44.1-33.4
			c2.2,1.5,1.2,6.6-1.8,12.9c-1.3,0.5-2.7,0.8-4.1,1.1c2-3.7,3.3-6.7,3.8-8.8c1.4-7.5-16.2,8.3-28.5,25.2
			c-12.5,17-19.9,32.4-19.9,32.4s2.5-1.4,6.5-4.6c4.1-3.3,9.8-8.5,15.9-14.9c4.1-4.2,9-9.6,13.4-15.6c1.3-0.1,2.7-0.2,4-0.4
			c-5.1,6.8-10.4,13.1-14.9,17.6c-5,5.1-10.4,10.5-15.1,14.4c-7.4,6.3-13.2,9.8-13.2,9.8s-11,22.1-5,23.5c3.5,0.8,10.4-9.8,10.4-9.8
			s9-13.8,14.4-19.9c7.4-8.4,13.8-13.3,20.2-13.4c3.7-0.1,5.9,3.9,5.9,3.9l1.8-2.7h10.7C320.2,52.9,300.1,86.9,298.5,89.4z
			 M238,76.1c-0.2-0.1-2.5-1.2-5-3.2c-2.4-2-3.7-4.4-3.8-4.5s-0.2,0-0.4,0.1c-0.1,0.1-0.6,0.5-4.4,6.1c-3.9,5.7-9.7,17.2-4.4,19.2
			c3.4,1.3,9.1-4.7,12.1-8.7c2.8-3.7,5.5-8.4,5.8-8.7C238.3,76.2,238.2,76.1,238,76.1z M243.5,66.5c0.9-2.6,2.2-7.7-0.4-9.7
			c-2.8-2.1-10,2.8-10,7.9c0,5.2,5.1,7.5,6.3,7.9c0.7,0.2,0.9,0.1,1.3-0.4C240.8,72,242.5,69.1,243.5,66.5z M305.2,59.3
			c0.2-0.4,0.4-0.7,0.4-0.7s-0.2-1.4-1.7-1.5c-1.7-0.1-3.9,0.2-9.9,6.8c-5.9,6.6-9.6,12.3-12.6,17.9c-3.4,6.3-4.7,10.8-2.8,12
			c0.6,0.4,1.4,0.4,2,0.2c1.3-0.4,2.8-1.5,5.1-4.2c1.1-1.2,2.2-2.9,3.7-5C293.4,79.6,303.2,62.8,305.2,59.3z M328.4,10.2
			c-7.5,4.8-18,9.3-28.1,8.3c-2.6,2.6-5.3,5.7-8,9c17.5,3.4,32.7-7.3,40.8-16.6c5.1-5.8,7.5-10.8,7.5-10.8S335.9,5.3,328.4,10.2z
			 M279.4,22.8c-8.3-4.2-14.3-9.4-20.5-12.6c-6-3.1-9.9-4.4-14.7-3.7c-0.8,0.1-2,0.5-2,0.5s2.5,8.5-7.4,22.9
			c-10,14.5-19.1,14.4-21.7,10.4c-2.7-4.2,0.8-12.7,6.6-20.4c6.1-8,16.9-14.6,16.9-14.6s-3.4-2.1-11.9,2.7
			c-8.3,4.6-22.4,15.7-35.5,34.4c-13.1,18.6-15.7,29-17.6,37c-1.9,8.1-0.1,16.7,8.8,16.7c9,0,19.5-13.7,22.4-18.5
			c5.4-8.8,9.1-22.4,1.5-20.6c-3.7,0.9-6.6,5-8.5,9s-2.7,7.9-2.7,7.9s-3.1,1.1-7.3,4.2c-4.1,3.1-6.8,6.1-6.8,6.1s0-6.5,5.2-17
			s14.6-15.2,19.9-15.7c4.8-0.4,11.1,3.7,5.8,18.9c-5.3,15.1-21,33.5-37.5,33.7c-15.2,0.2-25.2-19.2-4-53.2
			c23.5-37.5,50.9-49.1,59.9-50.4c9-1.3,11.8,2.7,11.8,2.7s7.4-3.4,17-2.8c11,0.7,19.3,8.5,30.5,13.9
			C284.6,17.2,281.9,20.1,279.4,22.8z M238.7,8.2c0,0-6.4,2.6-13.8,10.7c-7.4,8.3-11.8,17.5-8.5,19.8c1.2,0.9,4,1.1,9.2-3.5
			c4-3.7,8.1-8.4,10.8-15.1C239.7,11.9,238.7,8.2,238.7,8.2z"/>
	</g>
	<g>
		<g>
			<path class="st0" d="M307.9,96.6c-2.1,0-3.9,1.8-3.9,3.9l0,0c0,2.1,1.7,3.8,3.9,3.8c2.1,0,3.9-1.8,3.9-3.9l0,0
				C311.8,98.4,310.2,96.6,307.9,96.6z M311.1,100.5c0,1.8-1.4,3.2-3.2,3.2c-1.8,0-3.1-1.4-3.1-3.2l0,0c0-1.8,1.3-3.2,3.2-3.2
				C309.7,97.3,311.1,98.7,311.1,100.5L311.1,100.5z"/>
			<path class="st0" d="M308.9,101c0.5-0.2,0.9-0.6,0.9-1.3l0,0c0-0.4-0.1-0.7-0.4-0.9c-0.2-0.2-0.7-0.5-1.3-0.5h-1.8v4.1h0.9v-1.3
				h0.7l0.8,1.3h1.1L308.9,101z M308.9,99.8c0,0.4-0.2,0.6-0.7,0.6h-0.9v-1.2h0.9C308.6,99.1,308.9,99.3,308.9,99.8L308.9,99.8z"/>
		</g>
	</g>
</g>
</svg>
